<svg width="72" height="72" viewBox="0 0 72 72" fill="none" xmlns="http://www.w3.org/2000/svg">
<g filter="url(#filter0_dd_47_100)">
<rect x="12" y="2" width="48" height="48" rx="16" fill="#10B981"/>
<path d="M40.9999 35C41.5519 35 41.9999 34.5519 41.9999 34V28.65C41.9999 28.193 42.3159 27.806 42.7269 27.609C44.4838 26.7709 45.3823 24.7898 44.8554 22.916C44.3284 21.0421 42.5291 19.8197 40.5929 20.02C39.8035 18.185 37.9976 16.996 35.9999 16.996C34.0023 16.996 32.1964 18.185 31.4069 20.02C29.4717 19.8211 27.6739 21.0433 27.1472 22.9161C26.6205 24.7889 27.5177 26.7691 29.2729 27.608C29.6839 27.806 29.9999 28.193 29.9999 28.649V34C29.9999 34.5519 30.448 35 30.9999 35H40.9999" stroke="white" stroke-width="2" stroke-linecap="round" stroke-linejoin="round"/>
<path d="M30 31H42" stroke="white" stroke-width="2" stroke-linecap="round" stroke-linejoin="round"/>
</g>
<defs>
<filter id="filter0_dd_47_100" x="0" y="0" width="72" height="72" filterUnits="userSpaceOnUse" color-interpolation-filters="sRGB">
<feFlood flood-opacity="0" result="BackgroundImageFix"/>
<feColorMatrix in="SourceAlpha" type="matrix" values="0 0 0 0 0 0 0 0 0 0 0 0 0 0 0 0 0 0 127 0" result="hardAlpha"/>
<feMorphology radius="4" operator="erode" in="SourceAlpha" result="effect1_dropShadow_47_100"/>
<feOffset dy="4"/>
<feGaussianBlur stdDeviation="3"/>
<feComposite in2="hardAlpha" operator="out"/>
<feColorMatrix type="matrix" values="0 0 0 0 0 0 0 0 0 0.738789 0 0 0 0 0.489281 0 0 0 0.2 0"/>
<feBlend mode="normal" in2="BackgroundImageFix" result="effect1_dropShadow_47_100"/>
<feColorMatrix in="SourceAlpha" type="matrix" values="0 0 0 0 0 0 0 0 0 0 0 0 0 0 0 0 0 0 127 0" result="hardAlpha"/>
<feMorphology radius="3" operator="erode" in="SourceAlpha" result="effect2_dropShadow_47_100"/>
<feOffset dy="10"/>
<feGaussianBlur stdDeviation="7.5"/>
<feComposite in2="hardAlpha" operator="out"/>
<feColorMatrix type="matrix" values="0 0 0 0 0 0 0 0 0 0.738789 0 0 0 0 0.489281 0 0 0 0.2 0"/>
<feBlend mode="normal" in2="effect1_dropShadow_47_100" result="effect2_dropShadow_47_100"/>
<feBlend mode="normal" in="SourceGraphic" in2="effect2_dropShadow_47_100" result="shape"/>
</filter>
</defs>
</svg>
