<svg width="287" height="104" viewBox="0 0 287 104" fill="none" xmlns="http://www.w3.org/2000/svg">
<g filter="url(#filter0_dd_8_6)">
<rect x="32" y="32" width="40" height="40" rx="12" fill="#10B981"/>
<path d="M43 42V49C43 50.1 43.9 51 45 51H49C50.1038 51 51 50.1038 51 49V42" stroke="white" stroke-width="2" stroke-linecap="round" stroke-linejoin="round"/>
<path d="M47 42V62" stroke="white" stroke-width="2" stroke-linecap="round" stroke-linejoin="round"/>
<path d="M61 55V42C58.2404 42 56 44.2404 56 47V53C56 54.1 56.9 55 58 55H61V55M61 55V62" stroke="white" stroke-width="2" stroke-linecap="round" stroke-linejoin="round"/>
</g>
<path d="M93.864 61.24C92.648 61.24 91.512 61.02 90.456 60.58C89.4 60.14 88.472 59.528 87.672 58.744C86.872 57.96 86.252 57.044 85.812 55.996C85.372 54.948 85.152 53.816 85.152 52.6C85.152 51.4 85.372 50.28 85.812 49.24C86.252 48.2 86.868 47.292 87.66 46.516C88.452 45.74 89.376 45.136 90.432 44.704C91.488 44.272 92.624 44.056 93.84 44.056C94.688 44.056 95.516 44.176 96.324 44.416C97.132 44.656 97.864 44.992 98.52 45.424C99.176 45.856 99.712 46.352 100.128 46.912L98.448 48.664C97.968 48.2 97.476 47.816 96.972 47.512C96.468 47.208 95.952 46.976 95.424 46.816C94.896 46.656 94.368 46.576 93.84 46.576C92.976 46.576 92.18 46.728 91.452 47.032C90.724 47.336 90.084 47.76 89.532 48.304C88.98 48.848 88.552 49.484 88.248 50.212C87.944 50.94 87.792 51.736 87.792 52.6C87.792 53.432 87.952 54.22 88.272 54.964C88.592 55.708 89.036 56.36 89.604 56.92C90.172 57.48 90.828 57.92 91.572 58.24C92.316 58.56 93.104 58.72 93.936 58.72C94.56 58.72 95.152 58.628 95.712 58.444C96.272 58.26 96.768 58 97.2 57.664C97.632 57.328 97.968 56.94 98.208 56.5C98.448 56.06 98.568 55.592 98.568 55.096V54.616L98.928 54.952H93.792V52.384H101.232C101.264 52.56 101.288 52.732 101.304 52.9C101.32 53.068 101.332 53.228 101.34 53.38C101.348 53.532 101.352 53.68 101.352 53.824C101.352 54.928 101.16 55.932 100.776 56.836C100.392 57.74 99.86 58.52 99.18 59.176C98.5 59.832 97.708 60.34 96.804 60.7C95.9 61.06 94.92 61.24 93.864 61.24ZM107.928 61.24C107.032 61.24 106.252 61.032 105.588 60.616C104.924 60.2 104.412 59.616 104.052 58.864C103.692 58.112 103.512 57.216 103.512 56.176V48.4H105.984V55.504C105.984 56.24 106.1 56.876 106.332 57.412C106.564 57.948 106.9 58.36 107.34 58.648C107.78 58.936 108.312 59.08 108.936 59.08C109.4 59.08 109.824 59.004 110.208 58.852C110.592 58.7 110.924 58.488 111.204 58.216C111.484 57.944 111.704 57.616 111.864 57.232C112.024 56.848 112.104 56.432 112.104 55.984V48.4H114.576V61H112.104V58.36L112.536 58.072C112.344 58.664 112.02 59.2 111.564 59.68C111.108 60.16 110.568 60.54 109.944 60.82C109.32 61.1 108.648 61.24 107.928 61.24ZM121.632 61.24C120.576 61.24 119.624 61.056 118.776 60.688C117.928 60.32 117.224 59.776 116.664 59.056L118.344 57.616C118.824 58.176 119.348 58.58 119.916 58.828C120.484 59.076 121.128 59.2 121.848 59.2C122.136 59.2 122.404 59.164 122.652 59.092C122.9 59.02 123.116 58.912 123.3 58.768C123.484 58.624 123.624 58.452 123.72 58.252C123.816 58.052 123.864 57.832 123.864 57.592C123.864 57.176 123.712 56.84 123.408 56.584C123.248 56.472 122.996 56.348 122.652 56.212C122.308 56.076 121.864 55.936 121.32 55.792C120.392 55.552 119.632 55.28 119.04 54.976C118.448 54.672 117.992 54.328 117.672 53.944C117.432 53.64 117.256 53.308 117.144 52.948C117.032 52.588 116.976 52.192 116.976 51.76C116.976 51.232 117.092 50.748 117.324 50.308C117.556 49.868 117.876 49.484 118.284 49.156C118.692 48.828 119.172 48.576 119.724 48.4C120.276 48.224 120.864 48.136 121.488 48.136C122.08 48.136 122.668 48.216 123.252 48.376C123.836 48.536 124.376 48.768 124.872 49.072C125.368 49.376 125.784 49.736 126.12 50.152L124.704 51.712C124.4 51.408 124.068 51.14 123.708 50.908C123.348 50.676 122.984 50.496 122.616 50.368C122.248 50.24 121.912 50.176 121.608 50.176C121.272 50.176 120.968 50.208 120.696 50.272C120.424 50.336 120.196 50.432 120.012 50.56C119.828 50.688 119.688 50.848 119.592 51.04C119.496 51.232 119.448 51.448 119.448 51.688C119.464 51.896 119.516 52.092 119.604 52.276C119.692 52.46 119.816 52.616 119.976 52.744C120.152 52.872 120.416 53.008 120.768 53.152C121.12 53.296 121.568 53.432 122.112 53.56C122.912 53.768 123.572 53.996 124.092 54.244C124.612 54.492 125.024 54.776 125.328 55.096C125.648 55.4 125.872 55.752 126 56.152C126.128 56.552 126.192 57 126.192 57.496C126.192 58.216 125.988 58.86 125.58 59.428C125.172 59.996 124.624 60.44 123.936 60.76C123.248 61.08 122.48 61.24 121.632 61.24ZM129.888 61V45.184H132.36V61H129.888ZM127.272 50.8V48.4H135.288V50.8H127.272ZM142.488 61.24C141.256 61.24 140.156 60.956 139.188 60.388C138.22 59.82 137.456 59.044 136.896 58.06C136.336 57.076 136.056 55.952 136.056 54.688C136.056 53.424 136.336 52.3 136.896 51.316C137.456 50.332 138.22 49.556 139.188 48.988C140.156 48.42 141.256 48.136 142.488 48.136C143.704 48.136 144.796 48.42 145.764 48.988C146.732 49.556 147.496 50.332 148.056 51.316C148.616 52.3 148.896 53.424 148.896 54.688C148.896 55.952 148.616 57.076 148.056 58.06C147.496 59.044 146.732 59.82 145.764 60.388C144.796 60.956 143.704 61.24 142.488 61.24ZM142.488 58.984C143.24 58.984 143.912 58.796 144.504 58.42C145.096 58.044 145.56 57.532 145.896 56.884C146.232 56.236 146.392 55.504 146.376 54.688C146.392 53.856 146.232 53.116 145.896 52.468C145.56 51.82 145.096 51.312 144.504 50.944C143.912 50.576 143.24 50.392 142.488 50.392C141.736 50.392 141.06 50.58 140.46 50.956C139.86 51.332 139.392 51.844 139.056 52.492C138.72 53.14 138.56 53.872 138.576 54.688C138.56 55.504 138.72 56.236 139.056 56.884C139.392 57.532 139.86 58.044 140.46 58.42C141.06 58.796 141.736 58.984 142.488 58.984Z" fill="#0F172B"/>
<path d="M152.208 61V44.2H159.048C159.96 44.2 160.788 44.428 161.532 44.884C162.276 45.34 162.872 45.96 163.32 46.744C163.768 47.528 163.992 48.4 163.992 49.36C163.992 50.32 163.768 51.192 163.32 51.976C162.872 52.76 162.276 53.388 161.532 53.86C160.788 54.332 159.96 54.568 159.048 54.568H154.8V61H152.208ZM154.8 52.072H159C159.432 52.072 159.824 51.948 160.176 51.7C160.528 51.452 160.812 51.124 161.028 50.716C161.244 50.308 161.352 49.856 161.352 49.36C161.352 48.864 161.244 48.416 161.028 48.016C160.812 47.616 160.528 47.296 160.176 47.056C159.824 46.816 159.432 46.696 159 46.696H154.8V52.072ZM174.456 61.24C173.272 61.24 172.18 61.024 171.18 60.592C170.18 60.16 169.308 59.556 168.564 58.78C167.82 58.004 167.244 57.092 166.836 56.044C166.428 54.996 166.224 53.848 166.224 52.6C166.224 51.352 166.428 50.204 166.836 49.156C167.244 48.108 167.82 47.196 168.564 46.42C169.308 45.644 170.18 45.04 171.18 44.608C172.18 44.176 173.272 43.96 174.456 43.96C175.64 43.96 176.732 44.176 177.732 44.608C178.732 45.04 179.604 45.648 180.348 46.432C181.092 47.216 181.668 48.132 182.076 49.18C182.484 50.228 182.688 51.368 182.688 52.6C182.688 53.832 182.484 54.972 182.076 56.02C181.668 57.068 181.092 57.984 180.348 58.768C179.604 59.552 178.732 60.16 177.732 60.592C176.732 61.024 175.64 61.24 174.456 61.24ZM174.456 58.72C175.272 58.72 176.02 58.568 176.7 58.264C177.38 57.96 177.968 57.532 178.464 56.98C178.96 56.428 179.348 55.78 179.628 55.036C179.908 54.292 180.048 53.48 180.048 52.6C180.048 51.72 179.908 50.908 179.628 50.164C179.348 49.42 178.96 48.772 178.464 48.22C177.968 47.668 177.38 47.24 176.7 46.936C176.02 46.632 175.272 46.48 174.456 46.48C173.64 46.48 172.892 46.632 172.212 46.936C171.532 47.24 170.94 47.664 170.436 48.208C169.932 48.752 169.544 49.396 169.272 50.14C169 50.884 168.864 51.704 168.864 52.6C168.864 53.48 169 54.296 169.272 55.048C169.544 55.8 169.932 56.448 170.436 56.992C170.94 57.536 171.532 57.96 172.212 58.264C172.892 58.568 173.64 58.72 174.456 58.72ZM191.376 61.24C190.464 61.24 189.62 61.12 188.844 60.88C188.068 60.64 187.364 60.276 186.732 59.788C186.1 59.3 185.536 58.696 185.04 57.976L186.816 55.936C187.6 57.056 188.352 57.832 189.072 58.264C189.792 58.696 190.648 58.912 191.64 58.912C192.248 58.912 192.8 58.816 193.296 58.624C193.792 58.432 194.184 58.168 194.472 57.832C194.76 57.496 194.904 57.112 194.904 56.68C194.904 56.392 194.856 56.12 194.76 55.864C194.664 55.608 194.516 55.376 194.316 55.168C194.116 54.96 193.86 54.768 193.548 54.592C193.236 54.416 192.872 54.26 192.456 54.124C192.04 53.988 191.56 53.872 191.016 53.776C190.152 53.6 189.4 53.368 188.76 53.08C188.12 52.792 187.584 52.432 187.152 52C186.72 51.568 186.4 51.076 186.192 50.524C185.984 49.972 185.88 49.352 185.88 48.664C185.88 47.992 186.028 47.368 186.324 46.792C186.62 46.216 187.028 45.716 187.548 45.292C188.068 44.868 188.68 44.54 189.384 44.308C190.088 44.076 190.848 43.96 191.664 43.96C192.528 43.96 193.32 44.072 194.04 44.296C194.76 44.52 195.4 44.852 195.96 45.292C196.52 45.732 196.984 46.272 197.352 46.912L195.528 48.712C195.208 48.184 194.848 47.74 194.448 47.38C194.048 47.02 193.608 46.748 193.128 46.564C192.648 46.38 192.136 46.288 191.592 46.288C190.968 46.288 190.424 46.384 189.96 46.576C189.496 46.768 189.132 47.036 188.868 47.38C188.604 47.724 188.472 48.128 188.472 48.592C188.472 48.928 188.536 49.236 188.664 49.516C188.792 49.796 188.988 50.044 189.252 50.26C189.516 50.476 189.872 50.668 190.32 50.836C190.768 51.004 191.304 51.152 191.928 51.28C192.808 51.472 193.592 51.716 194.28 52.012C194.968 52.308 195.552 52.656 196.032 53.056C196.512 53.456 196.876 53.904 197.124 54.4C197.372 54.896 197.496 55.432 197.496 56.008C197.496 57.08 197.248 58.008 196.752 58.792C196.256 59.576 195.552 60.18 194.64 60.604C193.728 61.028 192.64 61.24 191.376 61.24Z" fill="#10B981"/>
<defs>
<filter id="filter0_dd_8_6" x="20" y="30" width="64" height="64" filterUnits="userSpaceOnUse" color-interpolation-filters="sRGB">
<feFlood flood-opacity="0" result="BackgroundImageFix"/>
<feColorMatrix in="SourceAlpha" type="matrix" values="0 0 0 0 0 0 0 0 0 0 0 0 0 0 0 0 0 0 127 0" result="hardAlpha"/>
<feMorphology radius="4" operator="erode" in="SourceAlpha" result="effect1_dropShadow_8_6"/>
<feOffset dy="4"/>
<feGaussianBlur stdDeviation="3"/>
<feComposite in2="hardAlpha" operator="out"/>
<feColorMatrix type="matrix" values="0 0 0 0 0.0635954 0 0 0 0 0.725449 0 0 0 0 0.505788 0 0 0 0.2 0"/>
<feBlend mode="normal" in2="BackgroundImageFix" result="effect1_dropShadow_8_6"/>
<feColorMatrix in="SourceAlpha" type="matrix" values="0 0 0 0 0 0 0 0 0 0 0 0 0 0 0 0 0 0 127 0" result="hardAlpha"/>
<feMorphology radius="3" operator="erode" in="SourceAlpha" result="effect2_dropShadow_8_6"/>
<feOffset dy="10"/>
<feGaussianBlur stdDeviation="7.5"/>
<feComposite in2="hardAlpha" operator="out"/>
<feColorMatrix type="matrix" values="0 0 0 0 0.0635954 0 0 0 0 0.725449 0 0 0 0 0.505788 0 0 0 0.2 0"/>
<feBlend mode="normal" in2="effect1_dropShadow_8_6" result="effect2_dropShadow_8_6"/>
<feBlend mode="normal" in="SourceGraphic" in2="effect2_dropShadow_8_6" result="shape"/>
</filter>
</defs>
</svg>
