<svg width="24" height="24" viewBox="0 0 24 24" fill="none" xmlns="http://www.w3.org/2000/svg">
<path d="M20 21V13C20 11.8962 19.1038 11 18 11H6C4.89617 11 4 11.8962 4 13V21" stroke="#90A1B9" stroke-width="2" stroke-linecap="round" stroke-linejoin="round"/>
<path d="M4 16C4 17.5 4.5 15 6 15C6 15 8.5 17 10 17C10 17 12.5 15 14 15C14 15 16.5 17 18 17L20 16" stroke="#90A1B9" stroke-width="2" stroke-linecap="round" stroke-linejoin="round"/>
<path d="M2 21H22" stroke="#90A1B9" stroke-width="2" stroke-linecap="round" stroke-linejoin="round"/>
<path d="M7 8V11" stroke="#90A1B9" stroke-width="2" stroke-linecap="round" stroke-linejoin="round"/>
<path d="M12 8V11" stroke="#90A1B9" stroke-width="2" stroke-linecap="round" stroke-linejoin="round"/>
<path d="M17 8V11" stroke="#90A1B9" stroke-width="2" stroke-linecap="round" stroke-linejoin="round"/>
<path d="M7 4H7.01" stroke="#90A1B9" stroke-width="2" stroke-linecap="round" stroke-linejoin="round"/>
<path d="M12 4H12.01" stroke="#90A1B9" stroke-width="2" stroke-linecap="round" stroke-linejoin="round"/>
<path d="M17 4H17.01" stroke="#90A1B9" stroke-width="2" stroke-linecap="round" stroke-linejoin="round"/>
</svg>
