<svg width="24" height="24" viewBox="0 0 24 24" fill="none" xmlns="http://www.w3.org/2000/svg">
<path d="M2.37012 11.223L10.7421 4.44598C11.4758 3.8524 12.5245 3.8524 13.2581 4.44598L21.6291 11.223" stroke="#90A1B9" stroke-width="2" stroke-linecap="round" stroke-linejoin="round"/>
<path d="M21 15C21.5519 15 22 15.4481 22 16V18C22 18.5519 21.5519 19 21 19H15.75" stroke="#90A1B9" stroke-width="2" stroke-linecap="round" stroke-linejoin="round"/>
<path d="M3 15C2.44808 15 2 15.4481 2 16V18C2 18.5519 2.44808 19 3 19H12" stroke="#90A1B9" stroke-width="2" stroke-linecap="round" stroke-linejoin="round"/>
<path d="M6.66992 15L12.7999 19.6C13.683 20.2623 14.9376 20.0831 15.5999 19.2L18.7499 15" stroke="#90A1B9" stroke-width="2" stroke-linecap="round" stroke-linejoin="round"/>
<path d="M3 11H21C21.5519 11 22 11.4481 22 12V14C22 14.5519 21.5519 15 21 15H3C2.44808 15 2 14.5519 2 14V12C2 11.4481 2.44808 11 3 11V11" stroke="#90A1B9" stroke-width="2" stroke-linecap="round" stroke-linejoin="round"/>
</svg>
