<svg width="24" height="24" viewBox="0 0 24 24" fill="none" xmlns="http://www.w3.org/2000/svg">
<path d="M7 21H17" stroke="#90A1B9" stroke-width="2" stroke-linecap="round" stroke-linejoin="round"/>
<path d="M12 21C16.9672 21 21 16.9672 21 12H3C3 16.9672 7.03276 21 12 21Z" stroke="#90A1B9" stroke-width="2" stroke-linecap="round" stroke-linejoin="round"/>
<path d="M11.38 12C10.1237 12.0117 9.07101 11.0526 8.96602 9.80064C8.86104 8.54871 9.73932 7.42766 10.98 7.22999C10.7849 6.36652 11.0809 5.46576 11.7502 4.88639C12.4195 4.30703 13.3534 4.14314 14.18 4.45999C14.5391 3.89465 15.1181 3.50509 15.7771 3.38545C16.4361 3.26581 17.1151 3.42697 17.65 3.82999C18.6053 3.07916 19.971 3.1607 20.8301 4.01986C21.6893 4.87901 21.7708 6.24471 21.02 7.19999C21.4779 7.80822 21.6201 8.59763 21.4031 9.32739C21.1861 10.0572 20.6358 10.6407 19.92 10.9C20.0112 11.2599 20.0215 11.6356 19.95 12" stroke="#90A1B9" stroke-width="2" stroke-linecap="round" stroke-linejoin="round"/>
<path d="M13 12L17 8" stroke="#90A1B9" stroke-width="2" stroke-linecap="round" stroke-linejoin="round"/>
<path d="M10.9001 7.24999C9.77754 6.05335 8.03692 5.66585 6.51278 6.2733C4.98865 6.88074 3.99174 8.35928 4.00005 9.99999C4.00005 10.73 4.20005 11.41 4.54005 12" stroke="#90A1B9" stroke-width="2" stroke-linecap="round" stroke-linejoin="round"/>
</svg>
